<svg id="Layer_1" data-name="Layer 1" xmlns="http://www.w3.org/2000/svg" viewBox="0 0 182.16 168.91"><defs><style>.cls-1{fill:#fefefe;}</style></defs><circle cx="91.08" cy="84.46" r="54"/><path class="cls-1" d="M91.08,104.44H65.94a5.45,5.45,0,0,1-5.59-5.57q0-14.46,0-28.9c0-.31-.11-.74.14-.89s.5.22.74.37q13.86,8.64,27.7,17.29a3.65,3.65,0,0,0,4.31,0q14-8.77,28-17.48c.55-.34.56-.34.59.31,0,.22,0,.43,0,.65V98.66a5.49,5.49,0,0,1-4.63,5.72,5.21,5.21,0,0,1-.88.06Z"/><path class="cls-1" d="M117.08,64.57l-4.37,2.74L91.54,80.51a.66.66,0,0,1-.83,0Q78.07,72.64,65.4,64.76L65,64.47H117Z"/></svg>