<svg id="Layer_1" data-name="Layer 1" xmlns="http://www.w3.org/2000/svg" viewBox="0 0 182.16 168.91"><defs><style>.cls-1{fill:#fff;}</style></defs><circle cx="91" cy="84" r="54"/><path class="cls-1" d="M118.48,88.66a1.1,1.1,0,0,1-.14-.79,19,19,0,0,0,.24-2.26,28.29,28.29,0,0,0-1-9.2A27.63,27.63,0,0,0,87.13,56.66a1.3,1.3,0,0,1-.84-.17,16.32,16.32,0,0,0-10.6-2.11A15.89,15.89,0,0,0,66.23,59a16.36,16.36,0,0,0-4.69,15.11,15.82,15.82,0,0,0,2,5.27.83.83,0,0,1,.13.61,25.77,25.77,0,0,0-.29,3.73,26.69,26.69,0,0,0,.54,5.75,27.36,27.36,0,0,0,14.76,19.23,26.24,26.24,0,0,0,9.72,2.78,27.24,27.24,0,0,0,6.63-.18.82.82,0,0,1,.57.14,16.69,16.69,0,0,0,22.89-22.8Zm-14.93,8.62a11.3,11.3,0,0,1-3.87,2.91,17.71,17.71,0,0,1-5.33,1.53,26.86,26.86,0,0,1-3.26.2,21.63,21.63,0,0,1-6.91-1,12,12,0,0,1-6.85-5.33A8.19,8.19,0,0,1,76.12,92a3.26,3.26,0,0,1,3-3.46,3.34,3.34,0,0,1,3.34,1.55,7.75,7.75,0,0,1,.68,1.27,14.92,14.92,0,0,0,1.09,2.1,6.09,6.09,0,0,0,4.19,2.9A11.55,11.55,0,0,0,94.33,96a6.41,6.41,0,0,0,2.75-1.67,3.88,3.88,0,0,0,1-3.87,3.2,3.2,0,0,0-1-1.6,7,7,0,0,0-2.69-1.51c-1.69-.55-3.44-.92-5.17-1.3a35,35,0,0,1-6.55-2,11.82,11.82,0,0,1-2.52-1.48,7.9,7.9,0,0,1-3.25-5.81,8.43,8.43,0,0,1,2-6.51,9.53,9.53,0,0,1,2.51-2,15.39,15.39,0,0,1,5-1.75,25.72,25.72,0,0,1,6.9-.27A15.64,15.64,0,0,1,99.62,68a10.48,10.48,0,0,1,3.09,2.57A7.25,7.25,0,0,1,104.22,74a3.49,3.49,0,0,1-3.89,4,2.94,2.94,0,0,1-2.09-1.16,14,14,0,0,1-1-1.59,12.94,12.94,0,0,0-1-1.49,5.5,5.5,0,0,0-3.87-2.31,12.54,12.54,0,0,0-4.57.16A6,6,0,0,0,85,73.08,2.87,2.87,0,0,0,84.16,76a2.62,2.62,0,0,0,.62,1.07,5.25,5.25,0,0,0,1.46,1.06,15.78,15.78,0,0,0,3.6,1.23c2.14.53,4.31,1,6.44,1.58A23.86,23.86,0,0,1,101,82.81a11.22,11.22,0,0,1,2,1.32,8.08,8.08,0,0,1,2.81,5.44A9.94,9.94,0,0,1,103.55,97.28Z"/></svg>