<svg id="Layer_1" data-name="Layer 1" xmlns="http://www.w3.org/2000/svg" viewBox="0 0 182.16 168.91"><defs><style>.cls-1{fill:#70beaf;}.cls-2{fill:#fefefe;}</style></defs><circle class="cls-1" cx="91.08" cy="84.46" r="54"/><path class="cls-2" d="M126,75.91a57.18,57.18,0,0,0-.79-10.7c-1.47-7.42-5.82-12.29-13.06-14.47a37.24,37.24,0,0,0-10.51-1.22c-6.11-.05-12.22,0-18.34,0a61.78,61.78,0,0,0-11.36.78,17.85,17.85,0,0,0-13.33,9.8,23.28,23.28,0,0,0-2.26,9.74c-.22,4.85-.22,9.71-.12,14.57,0,3.87,0,7.74,0,11.61a38.91,38.91,0,0,0,.63,7.54c1.59,7.64,6,12.69,13.61,14.76a42.68,42.68,0,0,0,11,1.11c5.65,0,11.3,0,17,0a58.64,58.64,0,0,0,12.41-.92c7.25-1.6,11.94-6,14-13.14a40.13,40.13,0,0,0,1.18-11Q126,85.14,126,75.91Zm-6.48,22.33a21.71,21.71,0,0,1-1,6.09c-1.49,4.58-4.74,7.15-9.36,8.09a48.85,48.85,0,0,1-9.59.65c-7.1,0-14.2.13-21.3-.1a26.66,26.66,0,0,1-6.65-.86c-4.91-1.45-7.61-4.85-8.58-9.77a33.32,33.32,0,0,1-.51-5.64c-.1-4.09-.18-8.17-.15-10.9,0-6.29,0-11.22.27-16.13a17.75,17.75,0,0,1,1.5-6.58c1.75-3.82,4.9-5.77,8.87-6.61a44.28,44.28,0,0,1,8.67-.61c7.63-.12,15.26-.14,22.88.11a23.73,23.73,0,0,1,5.8.81c4.8,1.38,7.57,4.62,8.6,9.44a48.75,48.75,0,0,1,.65,9.65C119.75,83.33,119.77,90.79,119.51,98.24Z"/><path class="cls-2" d="M109.69,69.84a4.19,4.19,0,1,1,4.21-4.22A4.14,4.14,0,0,1,109.69,69.84Z"/><path class="cls-2" d="M91.12,66.51a18,18,0,1,0,17.91,18A18,18,0,0,0,91.12,66.51Zm-.07,29.12a11.18,11.18,0,1,1,11.21-11.16A11.16,11.16,0,0,1,91.05,95.63Z"/></svg>