<svg id="Layer_1" data-name="Layer 1" xmlns="http://www.w3.org/2000/svg" viewBox="0 0 182.16 168.91"><defs><style>.cls-1{fill:#70beaf;}.cls-2{fill:#fdfdfd;}</style></defs><circle class="cls-1" cx="91.08" cy="84.46" r="54"/><path class="cls-2" d="M67.87,89.5a55,55,0,0,1-5.68-14.86,48.39,48.39,0,0,1-1.1-10.73,5.37,5.37,0,0,1,1.59-3.71c1.09-1.11,2.25-2.15,3.3-3.3,4.16-4.55,11.13-2.29,13,3.28.84,2.48,1.42,5,2.06,7.58a7.38,7.38,0,0,1-2,7.36,5.14,5.14,0,0,1-.66.66c-1.86,1.21-1.84,2.68-1,4.62A30.47,30.47,0,0,0,96.79,98.69a1.63,1.63,0,0,0,2-.52,14.64,14.64,0,0,1,2.88-2.73,7.62,7.62,0,0,1,5.87-1c2.67.67,5.38,1.26,8,2.18,5.73,2,7.55,9,3.2,13-1.09,1-2.1,2.06-3.12,3.11a5.74,5.74,0,0,1-4.44,1.77q-25.54-.68-40.75-21.21a12.57,12.57,0,0,1-2-2.89C67.94,90.2,68,89.8,67.87,89.5Z"/></svg>