<svg id="Layer_1" data-name="Layer 1" xmlns="http://www.w3.org/2000/svg" viewBox="0 0 182.16 168.91"><defs><style>.cls-1{fill:#d89349;}.cls-2{fill:#fff;}</style></defs><circle class="cls-1" cx="91.08" cy="84.46" r="54"/><path class="cls-2" d="M118.57,89.12a1.06,1.06,0,0,1-.15-.79,19.2,19.2,0,0,0,.24-2.27,28.32,28.32,0,0,0-1-9.2A27.65,27.65,0,0,0,87.21,57.11a1.21,1.21,0,0,1-.83-.16,16.43,16.43,0,0,0-10.61-2.12,16,16,0,0,0-9.46,4.65,16.36,16.36,0,0,0-4.69,15.11,15.62,15.62,0,0,0,2,5.27.93.93,0,0,1,.13.61,24.5,24.5,0,0,0-.3,3.72A26.08,26.08,0,0,0,64,90a27.35,27.35,0,0,0,14.75,19.23A26.24,26.24,0,0,0,88.47,112a27.24,27.24,0,0,0,6.63-.18.82.82,0,0,1,.57.14,16.69,16.69,0,0,0,22.9-22.8Zm-14.93,8.62a11.43,11.43,0,0,1-3.88,2.91,17.71,17.71,0,0,1-5.33,1.53,26.74,26.74,0,0,1-3.26.2,22,22,0,0,1-6.91-1,12,12,0,0,1-6.84-5.33,8.07,8.07,0,0,1-1.21-3.67,3.26,3.26,0,0,1,3-3.46,3.34,3.34,0,0,1,3.35,1.55,7,7,0,0,1,.67,1.27,16.05,16.05,0,0,0,1.09,2.1,6.09,6.09,0,0,0,4.19,2.9,11.78,11.78,0,0,0,5.92-.29,6.28,6.28,0,0,0,2.75-1.68,3.86,3.86,0,0,0,1-3.87,3.27,3.27,0,0,0-1-1.59,7.23,7.23,0,0,0-2.7-1.52c-1.69-.54-3.43-.91-5.17-1.3a35.73,35.73,0,0,1-6.55-2A11.51,11.51,0,0,1,80.21,83,7.93,7.93,0,0,1,77,77.2a8.46,8.46,0,0,1,2-6.5,9.49,9.49,0,0,1,2.51-2,15.32,15.32,0,0,1,5-1.75,25.34,25.34,0,0,1,6.9-.27,15.79,15.79,0,0,1,6.28,1.85,10.67,10.67,0,0,1,3.09,2.58,7.25,7.25,0,0,1,1.51,3.39,3.49,3.49,0,0,1-3.89,4,2.92,2.92,0,0,1-2.08-1.16,12.85,12.85,0,0,1-1-1.59,12.13,12.13,0,0,0-1-1.49,5.51,5.51,0,0,0-3.87-2.32,12.55,12.55,0,0,0-4.57.17,5.92,5.92,0,0,0-2.83,1.51,2.86,2.86,0,0,0-.82,2.94,2.54,2.54,0,0,0,.63,1.07,5.21,5.21,0,0,0,1.45,1.06,15.29,15.29,0,0,0,3.6,1.22c2.14.54,4.32,1,6.44,1.59a23.6,23.6,0,0,1,4.75,1.84,11.86,11.86,0,0,1,2,1.33A8.08,8.08,0,0,1,105.88,90,10,10,0,0,1,103.64,97.74Z"/></svg>