<svg id="Layer_1" data-name="Layer 1" xmlns="http://www.w3.org/2000/svg" viewBox="0 0 182.16 168.91"><defs><style>.cls-1{fill:#d89349;}.cls-2{fill:#fefefe;}.cls-3{fill:#fdfdfd;}</style></defs><circle class="cls-1" cx="91.08" cy="84.46" r="54"/><path class="cls-2" d="M94.63,78.61c3.5-3.71,7.2-5.39,11.56-5.49,8.6-.21,13.72,4.3,14.65,12.91s.23,17.28.46,25.92c0,1.83-.47,2.9-2.49,2.68a6.76,6.76,0,0,0-.9,0c-9.48.31-9.47.31-9.48-9.08,0-4.63.12-9.25,0-13.87-.16-4.86-2.21-7.12-6.14-7.21-4.15-.1-6.92,2.18-7.18,6.87-.37,6.54-.35,13.12-.13,19.67.1,3-.91,3.7-3.76,3.69-9,0-9,.08-9-9.13s.12-18.2-.07-27.3c-.06-3,.61-4.49,3.88-4a15,15,0,0,0,4,0C92.89,73.89,95,74.45,94.63,78.61Z"/><path class="cls-3" d="M74.41,94.5c0,5.51-.2,11,.08,16.53.15,3.1-1,3.67-3.81,3.66-8.81,0-8.81.09-8.81-8.88S62,87.64,61.8,78.56c-.07-3.15.5-4.44,4.06-4.37,8.55.18,8.55,0,8.55,8.7Z"/><path class="cls-3" d="M75.57,61.75a7.37,7.37,0,0,1-14.74-.32,7.37,7.37,0,1,1,14.74.32Z"/></svg>